<svg xmlns="http://www.w3.org/2000/svg" xmlns:xlink="http://www.w3.org/1999/xlink" width="500" zoomAndPan="magnify" viewBox="0 0 375 374.999991" height="500" preserveAspectRatio="xMidYMid meet" version="1.0"><defs><clipPath id="76ef6b12a3"><path d="M 151 49.449219 L 362 49.449219 L 362 325.449219 L 151 325.449219 Z M 151 49.449219 " clip-rule="nonzero"/></clipPath><clipPath id="08299b61c5"><path d="M 13.304688 118 L 83 118 L 83 188 L 13.304688 188 Z M 13.304688 118 " clip-rule="nonzero"/></clipPath><clipPath id="fe25d32d01"><path d="M 82 256 L 152 256 L 152 325.449219 L 82 325.449219 Z M 82 256 " clip-rule="nonzero"/></clipPath></defs><rect x="-37.5" width="450" fill="#ffffff" y="-37.499999" height="449.999989" fill-opacity="1"/><rect x="-37.5" width="450" fill="#ffffff" y="-37.499999" height="449.999989" fill-opacity="1"/><g clip-path="url(#76ef6b12a3)"><path fill="#050a30" d="M 168.660156 49.449219 L 267.289062 49.449219 C 305.234375 49.449219 336.3125 80.5 336.3125 118.472656 L 336.3125 131.960938 L 361.617188 181.652344 L 336.835938 187.496094 L 336.835938 240.757812 C 336.835938 249.425781 329.742188 256.519531 321.070312 256.519531 L 306.40625 256.519531 C 297.714844 256.519531 290.445312 263.039062 289.320312 271.457031 C 289.421875 272.207031 289.472656 272.980469 289.472656 273.78125 L 289.472656 308.28125 C 289.472656 317.773438 281.703125 325.542969 272.207031 325.542969 L 237.683594 325.542969 C 228.191406 325.542969 220.421875 317.773438 220.421875 308.28125 L 220.421875 273.757812 C 220.421875 264.339844 212.777344 256.621094 203.386719 256.496094 L 168.660156 256.496094 C 159.167969 256.496094 151.398438 248.726562 151.398438 239.234375 L 151.398438 204.734375 C 151.398438 195.242188 159.167969 187.472656 168.660156 187.472656 L 203.160156 187.472656 C 212.652344 187.472656 220.421875 179.703125 220.421875 170.210938 L 220.421875 135.710938 C 220.421875 126.21875 212.652344 118.449219 203.160156 118.449219 L 168.660156 118.449219 C 159.167969 118.449219 151.398438 110.679688 151.398438 101.1875 L 151.398438 66.710938 C 151.425781 57.21875 159.191406 49.449219 168.660156 49.449219 Z M 168.660156 49.449219 " fill-opacity="1" fill-rule="evenodd"/></g><g clip-path="url(#08299b61c5)"><path fill="#5cb6f9" d="M 65.136719 118.472656 L 30.640625 118.472656 C 21.144531 118.472656 13.378906 126.242188 13.378906 135.734375 L 13.378906 170.234375 C 13.378906 179.726562 21.144531 187.496094 30.640625 187.496094 L 65.136719 187.496094 C 74.632812 187.496094 82.402344 179.726562 82.402344 170.234375 L 82.402344 135.734375 C 82.402344 126.242188 74.632812 118.472656 65.136719 118.472656 Z M 65.136719 118.472656 " fill-opacity="1" fill-rule="evenodd"/></g><g clip-path="url(#fe25d32d01)"><path fill="#5cb6f9" d="M 99.664062 256.496094 L 134.160156 256.496094 C 143.65625 256.496094 151.425781 264.265625 151.425781 273.757812 L 151.425781 308.257812 C 151.425781 317.75 143.65625 325.519531 134.160156 325.519531 L 99.664062 325.519531 C 90.167969 325.519531 82.402344 317.75 82.402344 308.257812 L 82.402344 273.757812 C 82.402344 264.265625 90.167969 256.496094 99.664062 256.496094 Z M 99.664062 256.496094 " fill-opacity="1" fill-rule="evenodd"/></g></svg>