<svg xmlns="http://www.w3.org/2000/svg" width="100" height="200" viewBox="0 0 1125 376" preserveAspectRatio="xMidYMid meet" version="1.0">
  <defs>
    <clipPath id="clip1">
      <path d="M 161 64.16h190v248.84h-190z" />
    </clipPath>
    <clipPath id="clip2">
      <path d="M 37.5 126h62.5v63h-62.5z" />
    </clipPath>
  </defs>
  <g clip-path="url(#clip1)">
    <path fill="#050a30" stroke="#ffffff" stroke-width="10" d="M 177.4 64.2h88.9c34.1 0 62.1 27.9 62.1 62.1v12.2l22.8 44.7-22.3 5.3v48c0 7.8-6.4 14.2-14.2 14.2h-13.2c-7.8 0-14.4 5.8-15.4 13.4q0.1 1 0.1 2.1v31.1c0 8.5-7 15.5-15.5 15.5h-31.1c-8.5 0-15.5-7-15.5-15.5v-31.1c0-8.5-6.9-15.4-15.4-15.6h-31.3c-8.5 0-15.5-7-15.5-15.5v-31.1c0-8.5 7-15.5 15.5-15.5h31.1c8.6 0 15.6-7 15.6-15.6v-31c0-8.6-7-15.6-15.6-15.6h-31.1c-8.5 0-15.5-7-15.5-15.5v-31.1c0-8.5 7-15.5 15.5-15.5z" />
  </g>
  <g clip-path="url(#clip2)">
    <path fill="#5cb6f9" stroke="#ffffff" stroke-width="10" d="M 84.2 126.3h-31.1c-8.5 0-15.5 7-15.5 15.6v31c0 8.6 7 15.6 15.5 15.6h31.1c8.5 0 15.5-7 15.5-15.6v-31c0-8.6-7-15.6-15.5-15.6z" />
  </g>
  <path fill="#5cb6f9" stroke="#ffffff" stroke-width="10" d="M 115.3 250.6h31.1c8.5 0 15.5 7 15.5 15.6v31.1c0 8.5-7 15.5-15.5 15.5h-31.1c-8.6 0-15.6-7-15.6-15.5v-31.1c0-8.6 7-15.6 15.6-15.6z" />
  <g fill="#5cb6f9">
    <g transform="translate(393.365578, 265.489018)">
      <path fill="#5cb6f9" stroke="#ffffff" stroke-width="10" d="M 13.4375 0 L 13.4375 -149.28125 L 86.375 -149.28125 C 93.90625 -149.28125 100.832031 -148.144531 107.15625 -145.875 C 113.488281 -143.601562 118.929688 -140.441406 123.484375 -136.390625 C 128.035156 -132.335938 131.585938 -127.46875 134.140625 -121.78125 C 136.703125 -116.09375 137.984375 -109.832031 137.984375 -103 C 137.984375 -93.625 135.316406 -85.238281 129.984375 -77.84375 C 124.648438 -70.445312 117.578125 -64.972656 108.765625 -61.421875 L 141.828125 0 L 107.265625 0 L 78.0625 -57.15625 L 44.359375 -57.15625 L 44.359375 0 Z M 83.59375 -122.625 L 44.359375 -122.625 L 44.359375 -82.53125 L 83.59375 -82.53125 C 90.5625 -82.53125 96.144531 -84.378906 100.34375 -88.078125 C 104.539062 -91.773438 106.640625 -96.609375 106.640625 -102.578125 C 106.640625 -108.546875 104.539062 -113.378906 100.34375 -117.078125 C 96.144531 -120.773438 90.5625 -122.625 83.59375 -122.625 Z" />
    </g>
  </g>
  <g fill="#5cb6f9">
    <g transform="translate(538.150408, 265.489018)">
      <path fill="#5cb6f9" stroke="#ffffff" stroke-width="10" d="M 46.703125 1.921875 C 34.765625 1.921875 25.023438 -1.238281 17.484375 -7.5625 C 9.953125 -13.894531 6.1875 -22.109375 6.1875 -32.203125 C 6.1875 -42.722656 10.238281 -50.96875 18.34375 -56.9375 C 26.445312 -62.914062 37.609375 -65.90625 51.828125 -65.90625 C 56.367188 -65.90625 60.914062 -65.546875 65.46875 -64.828125 C 70.019531 -64.117188 74.5 -63.054688 78.90625 -61.640625 L 78.90625 -69.53125 C 78.90625 -75.925781 76.914062 -80.757812 72.9375 -84.03125 C 68.957031 -87.300781 63.128906 -88.9375 55.453125 -88.9375 C 50.753906 -88.9375 45.664062 -88.1875 40.1875 -86.6875 C 34.71875 -85.195312 28.503906 -82.890625 21.546875 -79.765625 L 10.875 -101.296875 C 19.550781 -105.273438 27.972656 -108.257812 36.140625 -110.25 C 44.316406 -112.25 52.390625 -113.25 60.359375 -113.25 C 75.285156 -113.25 86.90625 -109.65625 95.21875 -102.46875 C 103.539062 -95.289062 107.703125 -85.160156 107.703125 -72.078125 L 107.703125 0 L 78.90625 0 L 78.90625 -7.671875 C 74.21875 -4.398438 69.273438 -1.984375 64.078125 -0.421875 C 58.890625 1.140625 53.097656 1.921875 46.703125 1.921875 Z M 34.125 -32.84375 C 34.125 -28.570312 35.972656 -25.191406 39.671875 -22.703125 C 43.367188 -20.222656 48.269531 -18.984375 54.375 -18.984375 C 59.21875 -18.984375 63.664062 -19.585938 67.71875 -20.796875 C 71.769531 -22.003906 75.5 -23.742188 78.90625 -26.015625 L 78.90625 -42.65625 C 75.351562 -44.070312 71.617188 -45.097656 67.703125 -45.734375 C 63.796875 -46.378906 59.710938 -46.703125 55.453125 -46.703125 C 48.765625 -46.703125 43.535156 -45.457031 39.765625 -42.96875 C 36.003906 -40.476562 34.125 -37.101562 34.125 -32.84375 Z" />
    </g>
  </g>
  <g fill="#5cb6f9">
    <g transform="translate(656.494401, 265.489018)">
      <path fill="#5cb6f9" stroke="#ffffff" stroke-width="10" d="M 11.515625 0 L 11.515625 -111.109375 L 40.734375 -111.109375 L 40.734375 -102.375 C 44.992188 -105.925781 49.71875 -108.625 54.90625 -110.46875 C 60.101562 -112.320312 65.757812 -113.25 71.875 -113.25 C 84.664062 -113.25 95.179688 -109.125 103.421875 -100.875 C 111.671875 -92.625 115.796875 -82.03125 115.796875 -69.09375 L 115.796875 0 L 86.578125 0 L 86.578125 -64.828125 C 86.578125 -71.796875 84.476562 -77.410156 80.28125 -81.671875 C 76.09375 -85.941406 70.515625 -88.078125 63.546875 -88.078125 C 58.710938 -88.078125 54.34375 -87.117188 50.4375 -85.203125 C 46.53125 -83.285156 43.296875 -80.546875 40.734375 -76.984375 L 40.734375 0 Z" />
    </g>
  </g>
  <g fill="#5cb6f9">
    <g transform="translate(782.941234, 265.489018)">
      <path fill="#5cb6f9" stroke="#ffffff" stroke-width="10" d="M 26.65625 -31.34375 L 26.65625 -86.578125 L 3.84375 -86.578125 L 3.84375 -111.109375 L 26.65625 -111.109375 L 26.65625 -139.46875 L 55.875 -146.09375 L 55.875 -111.109375 L 87.4375 -111.109375 L 87.4375 -86.578125 L 55.875 -86.578125 L 55.875 -37.328125 C 55.875 -32.066406 57.007812 -28.367188 59.28125 -26.234375 C 61.5625 -24.097656 65.546875 -23.03125 71.234375 -23.03125 C 73.929688 -23.03125 76.488281 -23.207031 78.90625 -23.5625 C 81.320312 -23.914062 83.953125 -24.59375 86.796875 -25.59375 L 86.796875 -1.703125 C 83.671875 -0.710938 79.90625 0.0976562 75.5 0.734375 C 71.09375 1.378906 67.320312 1.703125 64.1875 1.703125 C 51.820312 1.703125 42.472656 -1.101562 36.140625 -6.71875 C 29.816406 -12.332031 26.65625 -20.539062 26.65625 -31.34375 Z" />
    </g>
  </g>
  <g fill="#050a30">
    <g transform="translate(873.358458, 265.489018)">
      <path fill="#050a30" stroke="#ffffff" stroke-width="10" d="M -0.859375 0 L 60.5625 -149.28125 L 96.390625 -149.28125 L 156.96875 0 L 123.484375 0 L 108.34375 -39.234375 L 46.703125 -39.234375 L 31.34375 0 Z M 56.296875 -63.984375 L 98.953125 -63.984375 L 77.84375 -119 Z" />
    </g>
  </g>
  <g fill="#050a30">
    <g transform="translate(1029.444618, 265.489018)">
      <path fill="#050a30" stroke="#ffffff" stroke-width="10" d="M 13.4375 0 L 13.4375 -149.28125 L 44.359375 -149.28125 L 44.359375 0 Z" />
    </g>
  </g>
</svg>
